<?xml version="1.0" encoding="UTF-8"?>
<svg width="105px" height="24px" viewBox="0 0 105 24" version="1.1" xmlns="http://www.w3.org/2000/svg" xmlns:xlink="http://www.w3.org/1999/xlink">
    <!-- Generator: Sketch 50.2 (55047) - http://www.bohemiancoding.com/sketch -->
    <title>lengoo</title>
    <desc>lengoo logo</desc>
    <defs></defs>
    <g id="Lengoo-Logo" stroke="none" stroke-width="1" fill="none" fill-rule="evenodd">
        <g id="Home" transform="translate(-273.000000, -4220.000000)" fill="#FFFFFF">
            <g id="Footer" transform="translate(0.000000, 4128.000000)">
                <g id="Lengoo_Logo" transform="translate(273.000000, 92.000000)">
                    <path d="M55.5518049,5.44835122 C54.5701463,5.44835122 53.6458537,5.71235122 52.7994146,6.2304 C52.7900488,6.23508293 52.7800976,6.24035122 52.7713171,6.24561951 C51.7557073,6.87137561 50.4679024,8.09303415 50.1160976,10.3595707 C50.1137561,10.3771317 50.1114146,10.393522 50.1114146,10.4104976 L50.1114146,16.5638634 C50.1114146,17.0087415 50.273561,17.3927415 50.5896585,17.7029854 C50.9092683,18.0161561 51.294439,18.1747902 51.7363902,18.1747902 C52.1736585,18.1747902 52.5687805,18.0196683 52.9112195,17.7141073 C53.2606829,17.4003512 53.4380488,17.0140098 53.4380488,16.5638634 L53.4380488,10.7985951 C53.4380488,10.2085463 53.64,9.72035122 54.0526829,9.30766829 C54.4647805,8.89557073 54.9594146,8.69479024 55.5652683,8.69479024 C56.1734634,8.69479024 56.6833171,8.89732683 57.1217561,9.31293659 C57.5560976,9.72620488 57.7662439,10.2120585 57.7662439,10.7985951 L57.7662439,16.5638634 C57.7662439,17.0087415 57.9324878,17.3933268 58.2626341,17.7076683 C58.5886829,18.0184976 58.9773659,18.1747902 59.4181463,18.1747902 C59.862439,18.1747902 60.2470244,18.0155707 60.5560976,17.7000585 C60.8634146,17.3880585 61.020878,17.0052293 61.020878,16.5638634 L61.020878,10.7985951 C61.020878,9.3468878 60.4835122,8.07957073 59.4222439,7.03118049 C58.3662439,5.98103415 57.0626341,5.44835122 55.5518049,5.44835122" id="Fill-1"></path>
                    <path d="M83.5441756,5.44835122 C81.8337366,5.44835122 80.3533463,6.08932683 79.1357854,7.35020488 C77.9281756,8.60698537 77.3152976,10.124839 77.3152976,11.8604488 C77.3152976,13.5978146 77.9246634,15.1104 79.1252488,16.3578146 C80.3322732,17.6110829 81.8255415,18.2473756 83.5658341,18.2473756 C85.3149073,18.2473756 86.7789073,17.5929366 87.8998829,16.3197659 C89.1086634,15.1660098 89.7203707,13.6903024 89.7203707,11.9324488 C89.7203707,10.1827902 89.1168585,8.6508878 87.9250537,7.37771707 C86.7285659,6.09810732 85.2546146,5.44835122 83.5441756,5.44835122 M80.6659317,11.8364488 C80.6659317,10.921522 80.9234927,10.177522 81.4526634,9.56171707 C82.0924683,9.0108878 82.7685659,8.74396098 83.5195902,8.74396098 C84.2741268,8.74396098 84.9549073,9.01557073 85.5753951,9.55410732 C86.1584195,10.1716683 86.4429073,10.9180098 86.4429073,11.8364488 C86.4429073,12.7572293 86.1572488,13.5217171 85.5917854,14.1515707 C85.0128585,14.6906927 84.3355902,14.9529366 83.5195902,14.9529366 C82.7071024,14.9529366 82.032761,14.6947902 81.4602732,14.1662049 C80.9334439,13.5258146 80.6659317,12.7420098 80.6659317,11.8364488" id="Fill-3"></path>
                    <path d="M102.289463,7.37754146 C101.090049,6.09793171 99.6149268,5.44817561 97.9033171,5.44817561 C96.1958049,5.44817561 94.7130732,6.08915122 93.4996098,7.35002927 C92.2902439,8.60739512 91.6773659,10.1246634 91.6773659,11.8602732 C91.6773659,13.597639 92.2867317,15.1108098 93.4879024,16.3582244 C94.6931707,17.6114927 96.1876098,18.2477854 97.9290732,18.2477854 C99.6763902,18.2477854 101.142146,17.5921756 102.261366,16.3195902 C103.469561,15.1658341 104.082439,13.6901268 104.082439,11.9322732 C104.082439,10.1826146 103.478927,8.6507122 102.289463,7.37754146 M95.0303415,11.8362732 C95.0303415,10.920761 95.285561,10.1773463 95.8153171,9.56212683 C96.4545366,9.0107122 97.1294634,8.74378537 97.8804878,8.74378537 C98.6361951,8.74378537 99.3158049,9.01539512 99.9380488,9.55393171 C100.521073,10.1697366 100.805561,10.9172488 100.805561,11.8362732 C100.805561,12.7588098 100.520488,13.5221268 99.9515122,14.1519805 C99.3760976,14.6905171 98.6959024,14.952761 97.8804878,14.952761 C97.0703415,14.952761 96.3971707,14.6946146 95.8223415,14.1660293 C95.2867317,13.5180293 95.0303415,12.7558829 95.0303415,11.8362732" id="Fill-5"></path>
                    <path d="M46.2611122,7.12039024 C45.0804293,6.01170732 43.6105756,5.44858537 41.8931122,5.44858537 C40.1686244,5.44858537 38.6788683,6.07960976 37.4654049,7.3235122 C36.2548683,8.5644878 35.6349659,10.0729756 35.6156488,11.8156098 C35.6349659,13.553561 36.256039,15.0579512 37.467161,16.2878049 C38.6788683,17.5240976 40.2055024,18.1545366 42.0014049,18.1627317 L42.0429659,18.1633171 C43.816039,18.1627317 45.3362341,17.6019512 46.5637463,16.4956098 C46.5742829,16.4844878 46.5842341,16.4733659 46.5947707,16.4610732 C47.1555512,15.7896585 47.1543805,15.0801951 46.6035512,14.4801951 C46.371161,14.1851707 45.9936,14.0347317 45.4743805,14.0347317 C44.9850146,14.0347317 44.5799415,14.1933659 44.2732098,14.5012683 C43.7358439,14.8682927 43.1358439,15.0474146 42.4392585,15.0474146 C42.2718439,15.0474146 42.0974049,15.036878 41.9206244,15.0152195 C41.0056976,14.9063415 40.3067707,14.5832195 39.843161,14.0546341 C39.8337951,14.0452683 39.8256,14.0347317 39.8162341,14.0265366 C39.5416976,13.7812683 39.3321366,13.44 39.1910634,13.0132683 L46.5549659,13.0132683 C47.0349659,13.0132683 47.4300878,12.8739512 47.7303805,12.5970732 C48.0359415,12.3172683 48.1939902,11.9473171 48.1939902,11.4989268 L48.1934049,11.358439 C48.0903805,9.65502439 47.4394537,8.2302439 46.2611122,7.12039024 M39.8905756,9.18321951 C40.3986732,8.71492683 41.084722,8.45385366 41.9358439,8.40702439 C42.8326244,8.48429268 43.5830634,8.76585366 44.1660878,9.24468293 C44.5881366,9.59180488 44.8948683,9.94419512 45.0804293,10.2971707 L39.0780878,10.2971707 C39.2343805,9.91434146 39.5059902,9.54146341 39.8905756,9.18321951" id="Fill-7"></path>
                    <path d="M31.9571122,0.624058537 C31.4894049,0.624058537 31.0866732,0.78737561 30.7617951,1.1081561 C30.4345756,1.42835122 30.2695024,1.82347317 30.2695024,2.28298537 L30.2695024,16.5155707 C30.2695024,16.9756683 30.4345756,17.3713756 30.7617951,17.6915707 C31.0849171,18.0123512 31.4882341,18.1744976 31.9571122,18.1744976 C32.4242341,18.1744976 32.8281366,18.013522 33.1629659,17.6956683 C33.4989659,17.3748878 33.6698927,16.9780098 33.6698927,16.5155707 L33.6698927,2.28298537 C33.6698927,1.82230244 33.4989659,1.42542439 33.1629659,1.10405854 C32.8281366,0.785619512 32.422478,0.624058537 31.9571122,0.624058537" id="Fill-9"></path>
                    <path d="M75.4133854,11.9325073 C75.4133854,10.1822634 74.8087024,8.65094634 73.6174829,7.37777561 C72.4198244,6.09758049 70.9464585,5.44899512 69.2354341,5.44899512 C67.5261659,5.44899512 66.0440195,6.0888 64.8288,7.35026341 C63.6200195,8.60645854 63.0083122,10.1243122 63.0083122,11.8605073 C63.0083122,13.5978732 63.6182634,15.1104585 64.817678,16.3578732 C66.0229463,17.6111415 67.5179707,18.2474341 69.2594341,18.2474341 C70.2042146,18.2474341 71.0658732,18.0542634 71.8356293,17.6772878 C71.849678,17.7762146 71.8567024,17.879239 71.8567024,17.9851902 C71.8567024,19.6985561 70.115239,20.4969951 68.9374829,20.4969951 C67.9107512,20.4969951 66.9162146,20.2283122 66.0563122,19.7237268 C65.2777756,19.2624585 64.2727024,19.5217756 63.8137756,20.3008976 C63.3530927,21.0817756 63.6124098,22.085678 64.390361,22.5446049 C65.7525073,23.3494829 67.3265561,23.7732878 68.9374829,23.7732878 C71.9181659,23.7732878 75.1341659,21.5600195 75.1341659,17.9851902 C75.1341659,17.0158244 74.9000195,16.1061659 74.4498732,15.298361 C75.087922,14.333678 75.4133854,13.2080195 75.4133854,11.9325073 M66.358361,11.8365073 C66.358361,10.9215805 66.615922,10.1775805 67.1445073,9.56177561 C67.7854829,9.01094634 68.4604098,8.74401951 69.2085073,8.74401951 C69.9653854,8.74401951 70.6467512,9.01562927 71.2689951,9.55416585 C71.8502634,10.1711415 72.1353366,10.9180683 72.1353366,11.8365073 C72.1353366,12.7572878 71.8502634,13.5217756 71.2824585,14.1516293 C70.7041171,14.6907512 70.0274341,14.9529951 69.2085073,14.9529951 C68.398361,14.9529951 67.7251902,14.6948488 67.1509463,14.1662634 C66.6258732,13.5252878 66.358361,12.7420683 66.358361,11.8365073" id="Fill-11"></path>
                    <path d="M14.1385756,0.585365854 C10.1317463,0.585365854 6.73779512,3.18146341 5.59691707,6.76214634 C2.48452683,6.87804878 0.000234146341,9.39570732 0.000234146341,12.4852683 C0.000234146341,15.6497561 2.6051122,18.2148293 5.8211122,18.2148293 C7.20081951,18.2148293 8.46696585,17.7400976 9.46618537,16.9498537 C10.827161,17.772878 12.4263805,18.2476098 14.1385756,18.2476098 C19.0866732,18.2476098 23.0952585,14.2940488 23.0952585,9.41619512 C23.0952585,4.53834146 19.0866732,0.585365854 14.1385756,0.585365854 M20.110478,9.39980488 C20.110478,12.641561 17.4277463,15.2786341 14.1315512,15.2786341 C12.716722,15.2786341 11.3446244,14.7822439 10.2669659,13.883122 L9.04647805,12.8657561 L8.0976,14.1330732 C7.55320976,14.8612683 6.71847805,15.2786341 5.80881951,15.2786341 C4.24179512,15.2786341 2.9651122,14.0241951 2.9651122,12.4835122 C2.9651122,10.7467317 4.58774634,9.36234146 6.41994146,9.75570732 L7.98286829,10.0905366 L8.21642927,8.53404878 C8.64374634,5.67687805 11.1865756,3.52097561 14.1315512,3.52097561 C17.4277463,3.52097561 20.110478,6.15804878 20.110478,9.39980488" id="Fill-13"></path>
                </g>
            </g>
        </g>
    </g>
</svg>